<svg width="27" height="27" viewBox="0 0 27 27" fill="none" xmlns="http://www.w3.org/2000/svg">
<path d="M7.2544 22.3214C8.33256 22.3214 9.21587 23.2235 9.21587 24.3379C9.21587 25.4391 8.33256 26.3412 7.2544 26.3412C6.16325 26.3412 5.27994 25.4391 5.27994 24.3379C5.27994 23.2235 6.16325 22.3214 7.2544 22.3214ZM21.868 22.3214C22.9462 22.3214 23.8295 23.2235 23.8295 24.3379C23.8295 25.4391 22.9462 26.3412 21.868 26.3412C20.7769 26.3412 19.8936 25.4391 19.8936 24.3379C19.8936 23.2235 20.7769 22.3214 21.868 22.3214ZM1.34427 0.352546L4.44235 0.828818C4.88401 0.909744 5.20876 1.27988 5.24773 1.73095L5.49453 4.70267C5.5335 5.12853 5.87124 5.44693 6.28692 5.44693H23.8297C24.6221 5.44693 25.1417 5.72553 25.6613 6.33579C26.1809 6.94605 26.2718 7.82165 26.1549 8.61632L24.9209 17.3192C24.6871 18.9921 23.2842 20.2246 21.6345 20.2246H7.4625C5.73485 20.2246 4.30596 18.8727 4.16307 17.1215L2.968 2.65961L1.00653 2.31468C0.486937 2.22181 0.12322 1.70441 0.214149 1.17375C0.305078 0.631145 0.811684 0.27162 1.34427 0.352546ZM19.5561 10.3542H15.9579C15.4123 10.3542 14.9836 10.792 14.9836 11.3492C14.9836 11.8932 15.4123 12.3442 15.9579 12.3442H19.5561C20.1016 12.3442 20.5303 11.8932 20.5303 11.3492C20.5303 10.792 20.1016 10.3542 19.5561 10.3542Z" fill="#393939"/>
</svg>
