<svg width="26" height="27" viewBox="0 0 26 27" fill="none" xmlns="http://www.w3.org/2000/svg">
<path d="M9.12521 24.7465V20.7715C9.12521 19.7568 9.95382 18.9342 10.976 18.9342H14.7124C15.2032 18.9342 15.674 19.1277 16.0211 19.4723C16.3681 19.8169 16.5631 20.2842 16.5631 20.7715V24.7465C16.56 25.1684 16.7267 25.574 17.0261 25.8734C17.3255 26.1728 17.7329 26.3412 18.1578 26.3412H20.707C21.8975 26.3442 23.0404 25.8769 23.8833 25.0422C24.7262 24.2076 25.2 23.0742 25.2 21.8923V10.5681C25.2 9.61338 24.7737 8.70778 24.036 8.09525L15.3642 1.21982C13.8558 0.0143169 11.6944 0.0532394 10.231 1.31226L1.75712 8.09525C0.984563 8.68972 0.522818 9.59801 0.5 10.5681V21.8808C0.5 24.3442 2.51159 26.3412 4.99302 26.3412H7.48397C8.36659 26.3412 9.08389 25.6343 9.09029 24.7581L9.12521 24.7465Z" fill="#393939"/>
</svg>
