<svg width="27" height="27" viewBox="0 0 27 27" fill="none" xmlns="http://www.w3.org/2000/svg">
<path d="M19.2699 0.341187C23.6912 0.341187 26.1872 2.84889 26.2002 7.27019V19.4122C26.2002 23.8322 23.6912 26.3412 19.2699 26.3412H7.12919C2.7079 26.3412 0.200195 23.8322 0.200195 19.4122V7.27019C0.200195 2.84889 2.7079 0.341187 7.12919 0.341187H19.2699ZM13.8502 5.71019C13.4849 5.48919 13.0429 5.48919 12.6932 5.71019C12.3409 5.92989 12.1472 6.33419 12.1849 6.73719V19.9842C12.2512 20.5432 12.7179 20.9592 13.2639 20.9592C13.8242 20.9592 14.2909 20.5432 14.3429 19.9842V6.73719C14.3949 6.33419 14.2012 5.92989 13.8502 5.71019ZM7.77919 9.97419C7.42819 9.75319 6.98489 9.75319 6.63519 9.97419C6.28289 10.1952 6.0892 10.5969 6.12819 11.0012V19.9842C6.17889 20.5432 6.64689 20.9592 7.20589 20.9592C7.76619 20.9592 8.23289 20.5432 8.28489 19.9842V11.0012C8.32519 10.5969 8.12889 10.1952 7.77919 9.97419ZM19.8159 14.6932C19.4662 14.4722 19.0242 14.4722 18.6602 14.6932C18.3079 14.9142 18.1142 15.3029 18.1662 15.7202V19.9842C18.2182 20.5432 18.6849 20.9592 19.2452 20.9592C19.7912 20.9592 20.2579 20.5432 20.3242 19.9842V15.7202C20.3619 15.3029 20.1682 14.9142 19.8159 14.6932Z" fill="#393939"/>
</svg>
